<mxfile host="app.diagrams.net" modified="2022-03-13T16:38:03.071Z" agent="5.0 (Windows NT 10.0; Win64; x64) AppleWebKit/537.36 (KHTML, like Gecko) Chrome/99.0.4844.51 Safari/537.36" etag="mNxUPrftkmswkYyFzxpL" version="17.1.2" type="github">
  <diagram name="Page-1" id="64c3da0e-402f-94eb-ee01-a36477274f13">
    <mxGraphModel dx="2370" dy="1323" grid="1" gridSize="10" guides="1" tooltips="1" connect="1" arrows="1" fold="1" page="1" pageScale="1" pageWidth="1169" pageHeight="826" background="none" math="0" shadow="0">
      <root>
        <mxCell id="0" />
        <mxCell id="1" parent="0" />
        <mxCell id="2" value="PolWindows" style="whiteSpace=wrap;rounded=1;shadow=1;fillColor=#10739E;strokeColor=none;fontColor=#FFFFFF;fontStyle=1;fontSize=24" parent="1" vertex="1">
          <mxGeometry x="1000" y="50" width="340" height="60" as="geometry" />
        </mxCell>
        <mxCell id="3" value="Wydział produkcji futryn i elementów mechanicznych" style="whiteSpace=wrap;rounded=1;fillColor=#F2931E;strokeColor=none;shadow=1;fontColor=#FFFFFF;fontStyle=1;fontSize=14" parent="1" vertex="1">
          <mxGeometry x="490" y="169.9999999999998" width="140" height="60" as="geometry" />
        </mxCell>
        <mxCell id="4" value="Wydział obróbki i polerki szklanej" style="whiteSpace=wrap;rounded=1;fillColor=#F2931E;strokeColor=none;shadow=1;fontColor=#FFFFFF;fontStyle=1;fontSize=14" parent="1" vertex="1">
          <mxGeometry x="1100" y="169.9999999999998" width="140" height="60" as="geometry" />
        </mxCell>
        <mxCell id="6" value="Wydział montażu i pakowania" style="whiteSpace=wrap;rounded=1;fillColor=#F2931E;strokeColor=none;shadow=1;fontColor=#FFFFFF;fontStyle=1;fontSize=14" parent="1" vertex="1">
          <mxGeometry x="1780" y="169.9999999999998" width="140" height="60" as="geometry" />
        </mxCell>
        <mxCell id="10" value="Linia produkcji fasady" style="whiteSpace=wrap;rounded=1;fillColor=#12AAB5;strokeColor=none;shadow=1;fontColor=#FFFFFF;" parent="1" vertex="1">
          <mxGeometry x="110" y="300.0000000000001" width="120" height="60" as="geometry" />
        </mxCell>
        <mxCell id="12" value="Linia produkcji okna drewnianego" style="whiteSpace=wrap;rounded=1;fillColor=#12AAB5;strokeColor=none;shadow=1;fontColor=#FFFFFF;" parent="1" vertex="1">
          <mxGeometry x="310" y="300.0000000000001" width="120" height="60" as="geometry" />
        </mxCell>
        <mxCell id="103" value="" style="edgeStyle=elbowEdgeStyle;elbow=vertical;rounded=0;fontColor=#000000;endArrow=none;endFill=0;strokeWidth=8;strokeColor=#23445D;" parent="1" source="3" target="10" edge="1">
          <mxGeometry width="100" height="100" relative="1" as="geometry">
            <mxPoint x="60" y="290" as="sourcePoint" />
            <mxPoint x="160" y="190" as="targetPoint" />
            <Array as="points">
              <mxPoint x="340" y="260" />
            </Array>
          </mxGeometry>
        </mxCell>
        <mxCell id="104" value="" style="edgeStyle=elbowEdgeStyle;elbow=vertical;rounded=0;fontColor=#000000;endArrow=none;endFill=0;strokeWidth=8;strokeColor=#23445D;" parent="1" source="3" target="12" edge="1">
          <mxGeometry width="100" height="100" relative="1" as="geometry">
            <mxPoint x="400" y="290" as="sourcePoint" />
            <mxPoint x="500" y="190" as="targetPoint" />
            <Array as="points">
              <mxPoint x="560" y="260" />
              <mxPoint x="560" y="255" />
            </Array>
          </mxGeometry>
        </mxCell>
        <mxCell id="133" value="Linia montażowa fasady" style="whiteSpace=wrap;rounded=1;fillColor=#12AAB5;strokeColor=none;shadow=1;fontColor=#FFFFFF;" parent="1" vertex="1">
          <mxGeometry x="1389.9999999999998" y="290.0000000000001" width="120" height="60" as="geometry" />
        </mxCell>
        <mxCell id="134" value="Linia montażowa okna drewnianego" style="whiteSpace=wrap;rounded=1;fillColor=#12AAB5;strokeColor=none;shadow=1;fontColor=#FFFFFF;" parent="1" vertex="1">
          <mxGeometry x="1590" y="290.0000000000001" width="120" height="60" as="geometry" />
        </mxCell>
        <mxCell id="221" value="" style="edgeStyle=elbowEdgeStyle;elbow=vertical;rounded=0;fontColor=#000000;endArrow=none;endFill=0;strokeWidth=8;strokeColor=#23445D;" parent="1" source="6" target="133" edge="1">
          <mxGeometry width="100" height="100" relative="1" as="geometry">
            <mxPoint x="1360" y="260" as="sourcePoint" />
            <mxPoint x="1460" y="160" as="targetPoint" />
          </mxGeometry>
        </mxCell>
        <mxCell id="222" value="" style="edgeStyle=elbowEdgeStyle;elbow=vertical;rounded=0;fontColor=#000000;endArrow=none;endFill=0;strokeWidth=8;strokeColor=#23445D;" parent="1" source="6" target="134" edge="1">
          <mxGeometry width="100" height="100" relative="1" as="geometry">
            <mxPoint x="1610" y="270" as="sourcePoint" />
            <mxPoint x="1710" y="170" as="targetPoint" />
          </mxGeometry>
        </mxCell>
        <mxCell id="229" value="" style="edgeStyle=elbowEdgeStyle;elbow=vertical;rounded=0;fontColor=#000000;endArrow=none;endFill=0;strokeWidth=8;strokeColor=#23445D;" parent="1" source="2" target="3" edge="1">
          <mxGeometry width="100" height="100" relative="1" as="geometry">
            <mxPoint x="540" y="140" as="sourcePoint" />
            <mxPoint x="640" y="40" as="targetPoint" />
            <Array as="points">
              <mxPoint x="650" y="140" />
              <mxPoint x="650" y="150" />
            </Array>
          </mxGeometry>
        </mxCell>
        <mxCell id="230" value="" style="edgeStyle=elbowEdgeStyle;elbow=vertical;rounded=0;fontColor=#000000;endArrow=none;endFill=0;strokeWidth=8;strokeColor=#23445D;" parent="1" source="2" target="4" edge="1">
          <mxGeometry width="100" height="100" relative="1" as="geometry">
            <mxPoint x="550" y="150" as="sourcePoint" />
            <mxPoint x="650" y="50" as="targetPoint" />
          </mxGeometry>
        </mxCell>
        <mxCell id="234" value="" style="edgeStyle=elbowEdgeStyle;elbow=vertical;rounded=0;fontColor=#000000;endArrow=none;endFill=0;strokeWidth=8;strokeColor=#23445D;entryX=0.5;entryY=0;entryDx=0;entryDy=0;" parent="1" source="2" target="6" edge="1">
          <mxGeometry width="100" height="100" relative="1" as="geometry">
            <mxPoint x="590" y="190" as="sourcePoint" />
            <mxPoint x="2360" y="150" as="targetPoint" />
            <Array as="points">
              <mxPoint x="1770" y="140" />
            </Array>
          </mxGeometry>
        </mxCell>
        <mxCell id="9-6c7BfhoWEWpENg01it-234" value="Linia produkcji okna PVC" style="whiteSpace=wrap;rounded=1;fillColor=#12AAB5;strokeColor=none;shadow=1;fontColor=#FFFFFF;" vertex="1" parent="1">
          <mxGeometry x="500" y="300.0000000000001" width="120" height="60" as="geometry" />
        </mxCell>
        <mxCell id="9-6c7BfhoWEWpENg01it-235" value="Linia produkcji okna aluminiowego" style="whiteSpace=wrap;rounded=1;fillColor=#12AAB5;strokeColor=none;shadow=1;fontColor=#FFFFFF;" vertex="1" parent="1">
          <mxGeometry x="680" y="300.0000000000001" width="120" height="60" as="geometry" />
        </mxCell>
        <mxCell id="9-6c7BfhoWEWpENg01it-236" value="Linia produkcji okna elementów mechanicznych" style="whiteSpace=wrap;rounded=1;fillColor=#12AAB5;strokeColor=none;shadow=1;fontColor=#FFFFFF;" vertex="1" parent="1">
          <mxGeometry x="850" y="300.0000000000001" width="120" height="60" as="geometry" />
        </mxCell>
        <mxCell id="9-6c7BfhoWEWpENg01it-239" value="" style="edgeStyle=elbowEdgeStyle;elbow=vertical;rounded=0;fontColor=#000000;endArrow=none;endFill=0;strokeWidth=8;strokeColor=#23445D;exitX=0.5;exitY=1;exitDx=0;exitDy=0;entryX=0.5;entryY=0;entryDx=0;entryDy=0;" edge="1" parent="1" source="3" target="9-6c7BfhoWEWpENg01it-234">
          <mxGeometry width="100" height="100" relative="1" as="geometry">
            <mxPoint x="570" y="219.99999999999977" as="sourcePoint" />
            <mxPoint x="380" y="310" as="targetPoint" />
            <Array as="points">
              <mxPoint x="570" y="265" />
            </Array>
          </mxGeometry>
        </mxCell>
        <mxCell id="9-6c7BfhoWEWpENg01it-240" value="" style="edgeStyle=elbowEdgeStyle;elbow=vertical;rounded=0;fontColor=#000000;endArrow=none;endFill=0;strokeWidth=8;strokeColor=#23445D;entryX=0.5;entryY=0;entryDx=0;entryDy=0;" edge="1" parent="1" target="9-6c7BfhoWEWpENg01it-235">
          <mxGeometry width="100" height="100" relative="1" as="geometry">
            <mxPoint x="560" y="230" as="sourcePoint" />
            <mxPoint x="390" y="320" as="targetPoint" />
            <Array as="points">
              <mxPoint x="580" y="260" />
              <mxPoint x="650" y="260" />
            </Array>
          </mxGeometry>
        </mxCell>
        <mxCell id="9-6c7BfhoWEWpENg01it-241" value="" style="edgeStyle=elbowEdgeStyle;elbow=vertical;rounded=0;fontColor=#000000;endArrow=none;endFill=0;strokeWidth=8;strokeColor=#23445D;entryX=0.5;entryY=0;entryDx=0;entryDy=0;" edge="1" parent="1" target="9-6c7BfhoWEWpENg01it-236">
          <mxGeometry width="100" height="100" relative="1" as="geometry">
            <mxPoint x="560" y="230" as="sourcePoint" />
            <mxPoint x="840" y="280" as="targetPoint" />
            <Array as="points">
              <mxPoint x="600" y="260" />
              <mxPoint x="740" y="250" />
            </Array>
          </mxGeometry>
        </mxCell>
        <mxCell id="9-6c7BfhoWEWpENg01it-242" value="Linia produkcji szyby" style="whiteSpace=wrap;rounded=1;fillColor=#12AAB5;strokeColor=none;shadow=1;fontColor=#FFFFFF;" vertex="1" parent="1">
          <mxGeometry x="1110" y="300.0000000000001" width="120" height="60" as="geometry" />
        </mxCell>
        <mxCell id="9-6c7BfhoWEWpENg01it-243" value="" style="edgeStyle=elbowEdgeStyle;elbow=vertical;rounded=0;fontColor=#000000;endArrow=none;endFill=0;strokeWidth=8;strokeColor=#23445D;exitX=0.5;exitY=1;exitDx=0;exitDy=0;entryX=0.5;entryY=0;entryDx=0;entryDy=0;" edge="1" parent="1" source="4" target="9-6c7BfhoWEWpENg01it-242">
          <mxGeometry width="100" height="100" relative="1" as="geometry">
            <mxPoint x="819" y="220" as="sourcePoint" />
            <mxPoint x="1170" y="290" as="targetPoint" />
            <Array as="points">
              <mxPoint x="1160" y="260" />
              <mxPoint x="999" y="260" />
            </Array>
          </mxGeometry>
        </mxCell>
        <mxCell id="9-6c7BfhoWEWpENg01it-245" value="Linia montażowa okna PVC" style="whiteSpace=wrap;rounded=1;fillColor=#12AAB5;strokeColor=none;shadow=1;fontColor=#FFFFFF;" vertex="1" parent="1">
          <mxGeometry x="1790" y="290.0000000000001" width="120" height="60" as="geometry" />
        </mxCell>
        <mxCell id="9-6c7BfhoWEWpENg01it-246" value="Linia montażowa okna aluminiowego" style="whiteSpace=wrap;rounded=1;fillColor=#12AAB5;strokeColor=none;shadow=1;fontColor=#FFFFFF;" vertex="1" parent="1">
          <mxGeometry x="1990" y="290.0000000000001" width="120" height="60" as="geometry" />
        </mxCell>
        <mxCell id="9-6c7BfhoWEWpENg01it-247" value="Linia pakowania produktów finalnych" style="whiteSpace=wrap;rounded=1;fillColor=#12AAB5;strokeColor=none;shadow=1;fontColor=#FFFFFF;" vertex="1" parent="1">
          <mxGeometry x="2190" y="290.0000000000001" width="120" height="60" as="geometry" />
        </mxCell>
        <mxCell id="9-6c7BfhoWEWpENg01it-248" value="" style="edgeStyle=elbowEdgeStyle;elbow=vertical;rounded=0;fontColor=#000000;endArrow=none;endFill=0;strokeWidth=8;strokeColor=#23445D;exitX=0.5;exitY=1;exitDx=0;exitDy=0;" edge="1" parent="1" source="6">
          <mxGeometry width="100" height="100" relative="1" as="geometry">
            <mxPoint x="1750" y="219.99999999999977" as="sourcePoint" />
            <mxPoint x="1850" y="290" as="targetPoint" />
            <Array as="points">
              <mxPoint x="1800" y="255" />
            </Array>
          </mxGeometry>
        </mxCell>
        <mxCell id="9-6c7BfhoWEWpENg01it-250" value="" style="edgeStyle=elbowEdgeStyle;elbow=vertical;rounded=0;fontColor=#000000;endArrow=none;endFill=0;strokeWidth=8;strokeColor=#23445D;exitX=0.5;exitY=1;exitDx=0;exitDy=0;" edge="1" parent="1" source="6">
          <mxGeometry width="100" height="100" relative="1" as="geometry">
            <mxPoint x="2150" y="219.99999999999977" as="sourcePoint" />
            <mxPoint x="2250" y="290" as="targetPoint" />
          </mxGeometry>
        </mxCell>
        <mxCell id="9-6c7BfhoWEWpENg01it-252" value="" style="edgeStyle=elbowEdgeStyle;elbow=vertical;rounded=0;fontColor=#000000;endArrow=none;endFill=0;strokeWidth=8;strokeColor=#23445D;exitX=0.5;exitY=1;exitDx=0;exitDy=0;entryX=0.5;entryY=0;entryDx=0;entryDy=0;" edge="1" parent="1" source="6" target="9-6c7BfhoWEWpENg01it-246">
          <mxGeometry width="100" height="100" relative="1" as="geometry">
            <mxPoint x="1860" y="219.99999999999977" as="sourcePoint" />
            <mxPoint x="2260" y="300" as="targetPoint" />
          </mxGeometry>
        </mxCell>
        <mxCell id="9-6c7BfhoWEWpENg01it-259" value="Gniazdo obróbki termicznej elementów" style="whiteSpace=wrap;rounded=1;fillColor=#999999;strokeColor=none;shadow=1;fontColor=#FFFFFF;fontStyle=0" vertex="1" parent="1">
          <mxGeometry x="200" y="390.0000000000001" width="120" height="60" as="geometry" />
        </mxCell>
        <mxCell id="9-6c7BfhoWEWpENg01it-261" value="Gniazdo przycinania elementów" style="whiteSpace=wrap;rounded=1;fillColor=#999999;strokeColor=none;shadow=1;fontColor=#FFFFFF;fontStyle=0" vertex="1" parent="1">
          <mxGeometry x="200" y="480.0000000000001" width="120" height="60" as="geometry" />
        </mxCell>
        <mxCell id="9-6c7BfhoWEWpENg01it-262" value="Gniazdo szlifowania i wygładzania elementów" style="whiteSpace=wrap;rounded=1;fillColor=#999999;strokeColor=none;shadow=1;fontColor=#FFFFFF;fontStyle=0" vertex="1" parent="1">
          <mxGeometry x="199.99999999999955" y="570.0000000000001" width="120" height="60" as="geometry" />
        </mxCell>
        <mxCell id="9-6c7BfhoWEWpENg01it-263" value="Gniazdo wycinania elementów" style="whiteSpace=wrap;rounded=1;fillColor=#999999;strokeColor=none;shadow=1;fontColor=#FFFFFF;fontStyle=0" vertex="1" parent="1">
          <mxGeometry x="199.9999999999999" y="660.0000000000001" width="120" height="60" as="geometry" />
        </mxCell>
        <mxCell id="9-6c7BfhoWEWpENg01it-264" value="Gniazdo frezowania elementów drewnianych" style="whiteSpace=wrap;rounded=1;fillColor=#999999;strokeColor=none;shadow=1;fontColor=#FFFFFF;fontStyle=0" vertex="1" parent="1">
          <mxGeometry x="399.99999999999955" y="390.0000000000001" width="120" height="60" as="geometry" />
        </mxCell>
        <mxCell id="9-6c7BfhoWEWpENg01it-265" value="Gniazdo szlifowania i wygładzania elementów" style="whiteSpace=wrap;rounded=1;fillColor=#999999;strokeColor=none;shadow=1;fontColor=#FFFFFF;fontStyle=0" vertex="1" parent="1">
          <mxGeometry x="399.99999999999955" y="480.0000000000001" width="120" height="60" as="geometry" />
        </mxCell>
        <mxCell id="9-6c7BfhoWEWpENg01it-266" value="Gniazdo sklejania elementów" style="whiteSpace=wrap;rounded=1;fillColor=#999999;strokeColor=none;shadow=1;fontColor=#FFFFFF;fontStyle=0" vertex="1" parent="1">
          <mxGeometry x="400" y="570.0000000000001" width="120" height="60" as="geometry" />
        </mxCell>
        <mxCell id="9-6c7BfhoWEWpENg01it-267" value="Gniazdo konserwacji i zabezpieczania" style="whiteSpace=wrap;rounded=1;fillColor=#999999;strokeColor=none;shadow=1;fontColor=#FFFFFF;fontStyle=0" vertex="1" parent="1">
          <mxGeometry x="399.9999999999999" y="660.0000000000001" width="120" height="60" as="geometry" />
        </mxCell>
        <mxCell id="9-6c7BfhoWEWpENg01it-268" value="Gniazdo obróbki termicznej elementów" style="whiteSpace=wrap;rounded=1;fillColor=#999999;strokeColor=none;shadow=1;fontColor=#FFFFFF;fontStyle=0" vertex="1" parent="1">
          <mxGeometry x="590" y="390.0000000000001" width="120" height="60" as="geometry" />
        </mxCell>
        <mxCell id="9-6c7BfhoWEWpENg01it-269" value="Gniazdo przycinania elementów" style="whiteSpace=wrap;rounded=1;fillColor=#999999;strokeColor=none;shadow=1;fontColor=#FFFFFF;fontStyle=0" vertex="1" parent="1">
          <mxGeometry x="590" y="480.0000000000001" width="120" height="60" as="geometry" />
        </mxCell>
        <mxCell id="9-6c7BfhoWEWpENg01it-270" value="Gniazdo szlifowania i wygładzania elementów" style="whiteSpace=wrap;rounded=1;fillColor=#999999;strokeColor=none;shadow=1;fontColor=#FFFFFF;fontStyle=0" vertex="1" parent="1">
          <mxGeometry x="589.9999999999995" y="570.0000000000001" width="120" height="60" as="geometry" />
        </mxCell>
        <mxCell id="9-6c7BfhoWEWpENg01it-271" value="Gniazdo wycinania elementów" style="whiteSpace=wrap;rounded=1;fillColor=#999999;strokeColor=none;shadow=1;fontColor=#FFFFFF;fontStyle=0" vertex="1" parent="1">
          <mxGeometry x="589.9999999999999" y="660.0000000000001" width="120" height="60" as="geometry" />
        </mxCell>
        <mxCell id="9-6c7BfhoWEWpENg01it-272" value="Gniazdo obróbki termicznej elementów" style="whiteSpace=wrap;rounded=1;fillColor=#999999;strokeColor=none;shadow=1;fontColor=#FFFFFF;fontStyle=0" vertex="1" parent="1">
          <mxGeometry x="770" y="390.0000000000001" width="120" height="60" as="geometry" />
        </mxCell>
        <mxCell id="9-6c7BfhoWEWpENg01it-273" value="Gniazdo przycinania elementów" style="whiteSpace=wrap;rounded=1;fillColor=#999999;strokeColor=none;shadow=1;fontColor=#FFFFFF;fontStyle=0" vertex="1" parent="1">
          <mxGeometry x="770" y="480.0000000000001" width="120" height="60" as="geometry" />
        </mxCell>
        <mxCell id="9-6c7BfhoWEWpENg01it-274" value="Gniazdo szlifowania i wygładzania elementów" style="whiteSpace=wrap;rounded=1;fillColor=#999999;strokeColor=none;shadow=1;fontColor=#FFFFFF;fontStyle=0" vertex="1" parent="1">
          <mxGeometry x="769.9999999999995" y="570.0000000000001" width="120" height="60" as="geometry" />
        </mxCell>
        <mxCell id="9-6c7BfhoWEWpENg01it-275" value="Gniazdo konserwacji i zabezpieczania" style="whiteSpace=wrap;rounded=1;fillColor=#999999;strokeColor=none;shadow=1;fontColor=#FFFFFF;fontStyle=0" vertex="1" parent="1">
          <mxGeometry x="769.9999999999999" y="660.0000000000001" width="120" height="60" as="geometry" />
        </mxCell>
        <mxCell id="9-6c7BfhoWEWpENg01it-276" value="Gniazdo frezowania elementów drewnianych" style="whiteSpace=wrap;rounded=1;fillColor=#999999;strokeColor=none;shadow=1;fontColor=#FFFFFF;fontStyle=0" vertex="1" parent="1">
          <mxGeometry x="939.9999999999995" y="390.0000000000001" width="120" height="60" as="geometry" />
        </mxCell>
        <mxCell id="9-6c7BfhoWEWpENg01it-277" value="Gniazdo szlifowania i wygładzania elementów" style="whiteSpace=wrap;rounded=1;fillColor=#999999;strokeColor=none;shadow=1;fontColor=#FFFFFF;fontStyle=0" vertex="1" parent="1">
          <mxGeometry x="939.9999999999995" y="480.0000000000001" width="120" height="60" as="geometry" />
        </mxCell>
        <mxCell id="9-6c7BfhoWEWpENg01it-278" value="Gniazdo wycinania elementów" style="whiteSpace=wrap;rounded=1;fillColor=#999999;strokeColor=none;shadow=1;fontColor=#FFFFFF;fontStyle=0" vertex="1" parent="1">
          <mxGeometry x="939.9999999999999" y="570.0000000000001" width="120" height="60" as="geometry" />
        </mxCell>
        <mxCell id="9-6c7BfhoWEWpENg01it-279" value="Gniazdo konserwacji i zabezpieczania" style="whiteSpace=wrap;rounded=1;fillColor=#999999;strokeColor=none;shadow=1;fontColor=#FFFFFF;fontStyle=0" vertex="1" parent="1">
          <mxGeometry x="939.9999999999999" y="660.0000000000001" width="120" height="60" as="geometry" />
        </mxCell>
        <mxCell id="9-6c7BfhoWEWpENg01it-280" value="Gniazdo obróbki termicznej elementów" style="whiteSpace=wrap;rounded=1;fillColor=#999999;strokeColor=none;shadow=1;fontColor=#FFFFFF;fontStyle=0" vertex="1" parent="1">
          <mxGeometry x="1200" y="393.0000000000001" width="120" height="60" as="geometry" />
        </mxCell>
        <mxCell id="9-6c7BfhoWEWpENg01it-281" value="Gniazdo szlifowania i wygładzania elementów" style="whiteSpace=wrap;rounded=1;fillColor=#999999;strokeColor=none;shadow=1;fontColor=#FFFFFF;fontStyle=0" vertex="1" parent="1">
          <mxGeometry x="1199.9999999999995" y="480.0000000000001" width="120" height="60" as="geometry" />
        </mxCell>
        <mxCell id="9-6c7BfhoWEWpENg01it-282" value="Gniazdo wycinania elementów" style="whiteSpace=wrap;rounded=1;fillColor=#999999;strokeColor=none;shadow=1;fontColor=#FFFFFF;fontStyle=0" vertex="1" parent="1">
          <mxGeometry x="1200" y="570.0000000000001" width="120" height="60" as="geometry" />
        </mxCell>
        <mxCell id="9-6c7BfhoWEWpENg01it-283" value="Gniazdo konserwacji i zabezpieczania" style="whiteSpace=wrap;rounded=1;fillColor=#999999;strokeColor=none;shadow=1;fontColor=#FFFFFF;fontStyle=0" vertex="1" parent="1">
          <mxGeometry x="1200" y="660.0000000000001" width="120" height="60" as="geometry" />
        </mxCell>
        <mxCell id="9-6c7BfhoWEWpENg01it-295" value="Gniazdo szklenia elementów" style="whiteSpace=wrap;rounded=1;fillColor=#999999;strokeColor=none;shadow=1;fontColor=#FFFFFF;fontStyle=0" vertex="1" parent="1">
          <mxGeometry x="1480" y="380.0000000000001" width="120" height="60" as="geometry" />
        </mxCell>
        <mxCell id="9-6c7BfhoWEWpENg01it-296" value="Gniazdo montażu i składania produktów" style="whiteSpace=wrap;rounded=1;fillColor=#999999;strokeColor=none;shadow=1;fontColor=#FFFFFF;fontStyle=0" vertex="1" parent="1">
          <mxGeometry x="1480" y="470.0000000000001" width="120" height="60" as="geometry" />
        </mxCell>
        <mxCell id="9-6c7BfhoWEWpENg01it-297" value="Gniazdo szklenia elementów" style="whiteSpace=wrap;rounded=1;fillColor=#999999;strokeColor=none;shadow=1;fontColor=#FFFFFF;fontStyle=0" vertex="1" parent="1">
          <mxGeometry x="1680" y="380.0000000000001" width="120" height="60" as="geometry" />
        </mxCell>
        <mxCell id="9-6c7BfhoWEWpENg01it-298" value="Gniazdo montażu i składania produktów" style="whiteSpace=wrap;rounded=1;fillColor=#999999;strokeColor=none;shadow=1;fontColor=#FFFFFF;fontStyle=0" vertex="1" parent="1">
          <mxGeometry x="1680" y="470.0000000000001" width="120" height="60" as="geometry" />
        </mxCell>
        <mxCell id="9-6c7BfhoWEWpENg01it-299" value="Gniazdo szklenia elementów" style="whiteSpace=wrap;rounded=1;fillColor=#999999;strokeColor=none;shadow=1;fontColor=#FFFFFF;fontStyle=0" vertex="1" parent="1">
          <mxGeometry x="1880" y="383.0000000000001" width="120" height="60" as="geometry" />
        </mxCell>
        <mxCell id="9-6c7BfhoWEWpENg01it-300" value="Gniazdo montażu i składania produktów" style="whiteSpace=wrap;rounded=1;fillColor=#999999;strokeColor=none;shadow=1;fontColor=#FFFFFF;fontStyle=0" vertex="1" parent="1">
          <mxGeometry x="1880" y="470.0000000000001" width="120" height="60" as="geometry" />
        </mxCell>
        <mxCell id="9-6c7BfhoWEWpENg01it-301" value="Gniazdo szklenia elementów" style="whiteSpace=wrap;rounded=1;fillColor=#999999;strokeColor=none;shadow=1;fontColor=#FFFFFF;fontStyle=0" vertex="1" parent="1">
          <mxGeometry x="2080" y="380.0000000000001" width="120" height="60" as="geometry" />
        </mxCell>
        <mxCell id="9-6c7BfhoWEWpENg01it-302" value="Gniazdo montażu i składania produktów" style="whiteSpace=wrap;rounded=1;fillColor=#999999;strokeColor=none;shadow=1;fontColor=#FFFFFF;fontStyle=0" vertex="1" parent="1">
          <mxGeometry x="2080" y="467.0000000000001" width="120" height="60" as="geometry" />
        </mxCell>
        <mxCell id="9-6c7BfhoWEWpENg01it-303" value="Gniazdo sklejania elementów" style="whiteSpace=wrap;rounded=1;fillColor=#999999;strokeColor=none;shadow=1;fontColor=#FFFFFF;fontStyle=0" vertex="1" parent="1">
          <mxGeometry x="2280" y="380.0000000000001" width="120" height="60" as="geometry" />
        </mxCell>
        <mxCell id="9-6c7BfhoWEWpENg01it-304" value="Gniazdo pakowania produktów" style="whiteSpace=wrap;rounded=1;fillColor=#999999;strokeColor=none;shadow=1;fontColor=#FFFFFF;fontStyle=0" vertex="1" parent="1">
          <mxGeometry x="2280" y="467.0000000000001" width="120" height="60" as="geometry" />
        </mxCell>
        <mxCell id="9-6c7BfhoWEWpENg01it-306" value="" style="edgeStyle=elbowEdgeStyle;elbow=vertical;rounded=0;fontColor=#000000;endArrow=none;endFill=0;strokeWidth=8;strokeColor=#23445D;entryX=0;entryY=0.5;entryDx=0;entryDy=0;" edge="1" parent="1" target="9-6c7BfhoWEWpENg01it-259">
          <mxGeometry width="100" height="100" relative="1" as="geometry">
            <mxPoint x="170" y="360" as="sourcePoint" />
            <mxPoint x="140" y="430" as="targetPoint" />
            <Array as="points">
              <mxPoint x="180" y="420" />
            </Array>
          </mxGeometry>
        </mxCell>
        <mxCell id="9-6c7BfhoWEWpENg01it-307" value="" style="edgeStyle=elbowEdgeStyle;elbow=vertical;rounded=0;fontColor=#000000;endArrow=none;endFill=0;strokeWidth=8;strokeColor=#23445D;entryX=0;entryY=0.5;entryDx=0;entryDy=0;" edge="1" parent="1">
          <mxGeometry width="100" height="100" relative="1" as="geometry">
            <mxPoint x="170" y="420" as="sourcePoint" />
            <mxPoint x="200" y="510" as="targetPoint" />
            <Array as="points">
              <mxPoint x="180" y="510" />
            </Array>
          </mxGeometry>
        </mxCell>
        <mxCell id="9-6c7BfhoWEWpENg01it-308" value="" style="edgeStyle=elbowEdgeStyle;elbow=vertical;rounded=0;fontColor=#000000;endArrow=none;endFill=0;strokeWidth=8;strokeColor=#23445D;entryX=0;entryY=0.5;entryDx=0;entryDy=0;" edge="1" parent="1">
          <mxGeometry width="100" height="100" relative="1" as="geometry">
            <mxPoint x="170" y="510" as="sourcePoint" />
            <mxPoint x="200" y="600" as="targetPoint" />
            <Array as="points">
              <mxPoint x="180" y="600" />
            </Array>
          </mxGeometry>
        </mxCell>
        <mxCell id="9-6c7BfhoWEWpENg01it-309" value="" style="edgeStyle=elbowEdgeStyle;elbow=vertical;rounded=0;fontColor=#000000;endArrow=none;endFill=0;strokeWidth=8;strokeColor=#23445D;entryX=0;entryY=0.5;entryDx=0;entryDy=0;" edge="1" parent="1">
          <mxGeometry width="100" height="100" relative="1" as="geometry">
            <mxPoint x="170" y="600" as="sourcePoint" />
            <mxPoint x="200" y="700" as="targetPoint" />
            <Array as="points">
              <mxPoint x="180" y="700" />
            </Array>
          </mxGeometry>
        </mxCell>
        <mxCell id="9-6c7BfhoWEWpENg01it-310" value="" style="edgeStyle=elbowEdgeStyle;elbow=vertical;rounded=0;fontColor=#000000;endArrow=none;endFill=0;strokeWidth=8;strokeColor=#23445D;entryX=0;entryY=0.5;entryDx=0;entryDy=0;" edge="1" parent="1">
          <mxGeometry width="100" height="100" relative="1" as="geometry">
            <mxPoint x="370" y="360" as="sourcePoint" />
            <mxPoint x="400" y="420" as="targetPoint" />
            <Array as="points">
              <mxPoint x="380" y="420" />
            </Array>
          </mxGeometry>
        </mxCell>
        <mxCell id="9-6c7BfhoWEWpENg01it-311" value="" style="edgeStyle=elbowEdgeStyle;elbow=vertical;rounded=0;fontColor=#000000;endArrow=none;endFill=0;strokeWidth=8;strokeColor=#23445D;entryX=0;entryY=0.5;entryDx=0;entryDy=0;" edge="1" parent="1">
          <mxGeometry width="100" height="100" relative="1" as="geometry">
            <mxPoint x="370" y="420" as="sourcePoint" />
            <mxPoint x="400" y="510" as="targetPoint" />
            <Array as="points">
              <mxPoint x="380" y="510" />
            </Array>
          </mxGeometry>
        </mxCell>
        <mxCell id="9-6c7BfhoWEWpENg01it-312" value="" style="edgeStyle=elbowEdgeStyle;elbow=vertical;rounded=0;fontColor=#000000;endArrow=none;endFill=0;strokeWidth=8;strokeColor=#23445D;entryX=0;entryY=0.5;entryDx=0;entryDy=0;" edge="1" parent="1">
          <mxGeometry width="100" height="100" relative="1" as="geometry">
            <mxPoint x="370" y="510" as="sourcePoint" />
            <mxPoint x="400" y="600" as="targetPoint" />
            <Array as="points">
              <mxPoint x="380" y="600" />
            </Array>
          </mxGeometry>
        </mxCell>
        <mxCell id="9-6c7BfhoWEWpENg01it-313" value="" style="edgeStyle=elbowEdgeStyle;elbow=vertical;rounded=0;fontColor=#000000;endArrow=none;endFill=0;strokeWidth=8;strokeColor=#23445D;entryX=0;entryY=0.5;entryDx=0;entryDy=0;" edge="1" parent="1">
          <mxGeometry width="100" height="100" relative="1" as="geometry">
            <mxPoint x="370" y="600" as="sourcePoint" />
            <mxPoint x="400" y="700" as="targetPoint" />
            <Array as="points">
              <mxPoint x="380" y="700" />
            </Array>
          </mxGeometry>
        </mxCell>
        <mxCell id="9-6c7BfhoWEWpENg01it-314" value="" style="edgeStyle=elbowEdgeStyle;elbow=vertical;rounded=0;fontColor=#000000;endArrow=none;endFill=0;strokeWidth=8;strokeColor=#23445D;entryX=0;entryY=0.5;entryDx=0;entryDy=0;" edge="1" parent="1">
          <mxGeometry width="100" height="100" relative="1" as="geometry">
            <mxPoint x="560" y="360" as="sourcePoint" />
            <mxPoint x="590" y="420" as="targetPoint" />
            <Array as="points">
              <mxPoint x="570" y="420" />
            </Array>
          </mxGeometry>
        </mxCell>
        <mxCell id="9-6c7BfhoWEWpENg01it-315" value="" style="edgeStyle=elbowEdgeStyle;elbow=vertical;rounded=0;fontColor=#000000;endArrow=none;endFill=0;strokeWidth=8;strokeColor=#23445D;entryX=0;entryY=0.5;entryDx=0;entryDy=0;" edge="1" parent="1">
          <mxGeometry width="100" height="100" relative="1" as="geometry">
            <mxPoint x="560" y="420" as="sourcePoint" />
            <mxPoint x="590" y="510" as="targetPoint" />
            <Array as="points">
              <mxPoint x="570" y="510" />
            </Array>
          </mxGeometry>
        </mxCell>
        <mxCell id="9-6c7BfhoWEWpENg01it-316" value="" style="edgeStyle=elbowEdgeStyle;elbow=vertical;rounded=0;fontColor=#000000;endArrow=none;endFill=0;strokeWidth=8;strokeColor=#23445D;entryX=0;entryY=0.5;entryDx=0;entryDy=0;" edge="1" parent="1">
          <mxGeometry width="100" height="100" relative="1" as="geometry">
            <mxPoint x="560" y="510" as="sourcePoint" />
            <mxPoint x="590" y="600" as="targetPoint" />
            <Array as="points">
              <mxPoint x="570" y="600" />
            </Array>
          </mxGeometry>
        </mxCell>
        <mxCell id="9-6c7BfhoWEWpENg01it-317" value="" style="edgeStyle=elbowEdgeStyle;elbow=vertical;rounded=0;fontColor=#000000;endArrow=none;endFill=0;strokeWidth=8;strokeColor=#23445D;entryX=0;entryY=0.5;entryDx=0;entryDy=0;" edge="1" parent="1">
          <mxGeometry width="100" height="100" relative="1" as="geometry">
            <mxPoint x="560" y="600" as="sourcePoint" />
            <mxPoint x="590" y="700" as="targetPoint" />
            <Array as="points">
              <mxPoint x="570" y="700" />
            </Array>
          </mxGeometry>
        </mxCell>
        <mxCell id="9-6c7BfhoWEWpENg01it-318" value="" style="edgeStyle=elbowEdgeStyle;elbow=vertical;rounded=0;fontColor=#000000;endArrow=none;endFill=0;strokeWidth=8;strokeColor=#23445D;entryX=0;entryY=0.5;entryDx=0;entryDy=0;" edge="1" parent="1">
          <mxGeometry width="100" height="100" relative="1" as="geometry">
            <mxPoint x="740" y="360" as="sourcePoint" />
            <mxPoint x="770" y="420" as="targetPoint" />
            <Array as="points">
              <mxPoint x="750" y="420" />
            </Array>
          </mxGeometry>
        </mxCell>
        <mxCell id="9-6c7BfhoWEWpENg01it-319" value="" style="edgeStyle=elbowEdgeStyle;elbow=vertical;rounded=0;fontColor=#000000;endArrow=none;endFill=0;strokeWidth=8;strokeColor=#23445D;entryX=0;entryY=0.5;entryDx=0;entryDy=0;" edge="1" parent="1">
          <mxGeometry width="100" height="100" relative="1" as="geometry">
            <mxPoint x="740" y="420" as="sourcePoint" />
            <mxPoint x="770" y="510" as="targetPoint" />
            <Array as="points">
              <mxPoint x="750" y="510" />
            </Array>
          </mxGeometry>
        </mxCell>
        <mxCell id="9-6c7BfhoWEWpENg01it-320" value="" style="edgeStyle=elbowEdgeStyle;elbow=vertical;rounded=0;fontColor=#000000;endArrow=none;endFill=0;strokeWidth=8;strokeColor=#23445D;entryX=0;entryY=0.5;entryDx=0;entryDy=0;" edge="1" parent="1">
          <mxGeometry width="100" height="100" relative="1" as="geometry">
            <mxPoint x="740" y="510" as="sourcePoint" />
            <mxPoint x="770" y="600" as="targetPoint" />
            <Array as="points">
              <mxPoint x="750" y="600" />
            </Array>
          </mxGeometry>
        </mxCell>
        <mxCell id="9-6c7BfhoWEWpENg01it-321" value="" style="edgeStyle=elbowEdgeStyle;elbow=vertical;rounded=0;fontColor=#000000;endArrow=none;endFill=0;strokeWidth=8;strokeColor=#23445D;entryX=0;entryY=0.5;entryDx=0;entryDy=0;" edge="1" parent="1">
          <mxGeometry width="100" height="100" relative="1" as="geometry">
            <mxPoint x="740" y="600" as="sourcePoint" />
            <mxPoint x="770" y="700" as="targetPoint" />
            <Array as="points">
              <mxPoint x="750" y="700" />
            </Array>
          </mxGeometry>
        </mxCell>
        <mxCell id="9-6c7BfhoWEWpENg01it-322" value="" style="edgeStyle=elbowEdgeStyle;elbow=vertical;rounded=0;fontColor=#000000;endArrow=none;endFill=0;strokeWidth=8;strokeColor=#23445D;entryX=0;entryY=0.5;entryDx=0;entryDy=0;" edge="1" parent="1">
          <mxGeometry width="100" height="100" relative="1" as="geometry">
            <mxPoint x="910" y="360" as="sourcePoint" />
            <mxPoint x="940" y="420" as="targetPoint" />
            <Array as="points">
              <mxPoint x="920" y="420" />
            </Array>
          </mxGeometry>
        </mxCell>
        <mxCell id="9-6c7BfhoWEWpENg01it-323" value="" style="edgeStyle=elbowEdgeStyle;elbow=vertical;rounded=0;fontColor=#000000;endArrow=none;endFill=0;strokeWidth=8;strokeColor=#23445D;entryX=0;entryY=0.5;entryDx=0;entryDy=0;" edge="1" parent="1">
          <mxGeometry width="100" height="100" relative="1" as="geometry">
            <mxPoint x="910" y="420" as="sourcePoint" />
            <mxPoint x="940" y="510" as="targetPoint" />
            <Array as="points">
              <mxPoint x="920" y="510" />
            </Array>
          </mxGeometry>
        </mxCell>
        <mxCell id="9-6c7BfhoWEWpENg01it-324" value="" style="edgeStyle=elbowEdgeStyle;elbow=vertical;rounded=0;fontColor=#000000;endArrow=none;endFill=0;strokeWidth=8;strokeColor=#23445D;entryX=0;entryY=0.5;entryDx=0;entryDy=0;" edge="1" parent="1">
          <mxGeometry width="100" height="100" relative="1" as="geometry">
            <mxPoint x="910" y="510" as="sourcePoint" />
            <mxPoint x="940" y="600" as="targetPoint" />
            <Array as="points">
              <mxPoint x="920" y="600" />
            </Array>
          </mxGeometry>
        </mxCell>
        <mxCell id="9-6c7BfhoWEWpENg01it-325" value="" style="edgeStyle=elbowEdgeStyle;elbow=vertical;rounded=0;fontColor=#000000;endArrow=none;endFill=0;strokeWidth=8;strokeColor=#23445D;entryX=0;entryY=0.5;entryDx=0;entryDy=0;" edge="1" parent="1">
          <mxGeometry width="100" height="100" relative="1" as="geometry">
            <mxPoint x="910" y="600" as="sourcePoint" />
            <mxPoint x="940" y="700" as="targetPoint" />
            <Array as="points">
              <mxPoint x="920" y="700" />
            </Array>
          </mxGeometry>
        </mxCell>
        <mxCell id="9-6c7BfhoWEWpENg01it-326" value="" style="edgeStyle=elbowEdgeStyle;elbow=vertical;rounded=0;fontColor=#000000;endArrow=none;endFill=0;strokeWidth=8;strokeColor=#23445D;entryX=0;entryY=0.5;entryDx=0;entryDy=0;" edge="1" parent="1">
          <mxGeometry width="100" height="100" relative="1" as="geometry">
            <mxPoint x="1169" y="360" as="sourcePoint" />
            <mxPoint x="1199" y="420" as="targetPoint" />
            <Array as="points">
              <mxPoint x="1179" y="420" />
            </Array>
          </mxGeometry>
        </mxCell>
        <mxCell id="9-6c7BfhoWEWpENg01it-327" value="" style="edgeStyle=elbowEdgeStyle;elbow=vertical;rounded=0;fontColor=#000000;endArrow=none;endFill=0;strokeWidth=8;strokeColor=#23445D;entryX=0;entryY=0.5;entryDx=0;entryDy=0;" edge="1" parent="1">
          <mxGeometry width="100" height="100" relative="1" as="geometry">
            <mxPoint x="1169" y="420" as="sourcePoint" />
            <mxPoint x="1199" y="510" as="targetPoint" />
            <Array as="points">
              <mxPoint x="1179" y="510" />
            </Array>
          </mxGeometry>
        </mxCell>
        <mxCell id="9-6c7BfhoWEWpENg01it-328" value="" style="edgeStyle=elbowEdgeStyle;elbow=vertical;rounded=0;fontColor=#000000;endArrow=none;endFill=0;strokeWidth=8;strokeColor=#23445D;entryX=0;entryY=0.5;entryDx=0;entryDy=0;" edge="1" parent="1">
          <mxGeometry width="100" height="100" relative="1" as="geometry">
            <mxPoint x="1169" y="510" as="sourcePoint" />
            <mxPoint x="1199" y="600" as="targetPoint" />
            <Array as="points">
              <mxPoint x="1179" y="600" />
            </Array>
          </mxGeometry>
        </mxCell>
        <mxCell id="9-6c7BfhoWEWpENg01it-329" value="" style="edgeStyle=elbowEdgeStyle;elbow=vertical;rounded=0;fontColor=#000000;endArrow=none;endFill=0;strokeWidth=8;strokeColor=#23445D;entryX=0;entryY=0.5;entryDx=0;entryDy=0;" edge="1" parent="1">
          <mxGeometry width="100" height="100" relative="1" as="geometry">
            <mxPoint x="1169" y="600" as="sourcePoint" />
            <mxPoint x="1199" y="700" as="targetPoint" />
            <Array as="points">
              <mxPoint x="1179" y="700" />
            </Array>
          </mxGeometry>
        </mxCell>
        <mxCell id="9-6c7BfhoWEWpENg01it-330" value="" style="edgeStyle=elbowEdgeStyle;elbow=vertical;rounded=0;fontColor=#000000;endArrow=none;endFill=0;strokeWidth=8;strokeColor=#23445D;entryX=0;entryY=0.5;entryDx=0;entryDy=0;" edge="1" parent="1">
          <mxGeometry width="100" height="100" relative="1" as="geometry">
            <mxPoint x="1450.0000000000005" y="350" as="sourcePoint" />
            <mxPoint x="1480.0000000000005" y="410" as="targetPoint" />
            <Array as="points">
              <mxPoint x="1460" y="410" />
            </Array>
          </mxGeometry>
        </mxCell>
        <mxCell id="9-6c7BfhoWEWpENg01it-331" value="" style="edgeStyle=elbowEdgeStyle;elbow=vertical;rounded=0;fontColor=#000000;endArrow=none;endFill=0;strokeWidth=8;strokeColor=#23445D;entryX=0;entryY=0.5;entryDx=0;entryDy=0;" edge="1" parent="1">
          <mxGeometry width="100" height="100" relative="1" as="geometry">
            <mxPoint x="1450.0000000000005" y="410" as="sourcePoint" />
            <mxPoint x="1480.0000000000005" y="500" as="targetPoint" />
            <Array as="points">
              <mxPoint x="1460" y="500" />
            </Array>
          </mxGeometry>
        </mxCell>
        <mxCell id="9-6c7BfhoWEWpENg01it-334" value="" style="edgeStyle=elbowEdgeStyle;elbow=vertical;rounded=0;fontColor=#000000;endArrow=none;endFill=0;strokeWidth=8;strokeColor=#23445D;entryX=0;entryY=0.5;entryDx=0;entryDy=0;" edge="1" parent="1">
          <mxGeometry width="100" height="100" relative="1" as="geometry">
            <mxPoint x="1650" y="349.9999999999999" as="sourcePoint" />
            <mxPoint x="1680" y="410" as="targetPoint" />
            <Array as="points">
              <mxPoint x="1660" y="410" />
            </Array>
          </mxGeometry>
        </mxCell>
        <mxCell id="9-6c7BfhoWEWpENg01it-335" value="" style="edgeStyle=elbowEdgeStyle;elbow=vertical;rounded=0;fontColor=#000000;endArrow=none;endFill=0;strokeWidth=8;strokeColor=#23445D;entryX=0;entryY=0.5;entryDx=0;entryDy=0;" edge="1" parent="1">
          <mxGeometry width="100" height="100" relative="1" as="geometry">
            <mxPoint x="1650" y="410" as="sourcePoint" />
            <mxPoint x="1680" y="500" as="targetPoint" />
            <Array as="points">
              <mxPoint x="1660" y="500" />
            </Array>
          </mxGeometry>
        </mxCell>
        <mxCell id="9-6c7BfhoWEWpENg01it-336" value="" style="edgeStyle=elbowEdgeStyle;elbow=vertical;rounded=0;fontColor=#000000;endArrow=none;endFill=0;strokeWidth=8;strokeColor=#23445D;entryX=0;entryY=0.5;entryDx=0;entryDy=0;" edge="1" parent="1">
          <mxGeometry width="100" height="100" relative="1" as="geometry">
            <mxPoint x="1850" y="349.9999999999999" as="sourcePoint" />
            <mxPoint x="1880" y="410" as="targetPoint" />
            <Array as="points">
              <mxPoint x="1860" y="410" />
            </Array>
          </mxGeometry>
        </mxCell>
        <mxCell id="9-6c7BfhoWEWpENg01it-337" value="" style="edgeStyle=elbowEdgeStyle;elbow=vertical;rounded=0;fontColor=#000000;endArrow=none;endFill=0;strokeWidth=8;strokeColor=#23445D;entryX=0;entryY=0.5;entryDx=0;entryDy=0;" edge="1" parent="1">
          <mxGeometry width="100" height="100" relative="1" as="geometry">
            <mxPoint x="1850" y="410" as="sourcePoint" />
            <mxPoint x="1880" y="500" as="targetPoint" />
            <Array as="points">
              <mxPoint x="1860" y="500" />
            </Array>
          </mxGeometry>
        </mxCell>
        <mxCell id="9-6c7BfhoWEWpENg01it-338" value="" style="edgeStyle=elbowEdgeStyle;elbow=vertical;rounded=0;fontColor=#000000;endArrow=none;endFill=0;strokeWidth=8;strokeColor=#23445D;entryX=0;entryY=0.5;entryDx=0;entryDy=0;" edge="1" parent="1">
          <mxGeometry width="100" height="100" relative="1" as="geometry">
            <mxPoint x="2050" y="349.9999999999999" as="sourcePoint" />
            <mxPoint x="2080" y="410" as="targetPoint" />
            <Array as="points">
              <mxPoint x="2060" y="410" />
            </Array>
          </mxGeometry>
        </mxCell>
        <mxCell id="9-6c7BfhoWEWpENg01it-339" value="" style="edgeStyle=elbowEdgeStyle;elbow=vertical;rounded=0;fontColor=#000000;endArrow=none;endFill=0;strokeWidth=8;strokeColor=#23445D;entryX=0;entryY=0.5;entryDx=0;entryDy=0;" edge="1" parent="1">
          <mxGeometry width="100" height="100" relative="1" as="geometry">
            <mxPoint x="2050" y="410" as="sourcePoint" />
            <mxPoint x="2080" y="500" as="targetPoint" />
            <Array as="points">
              <mxPoint x="2060" y="500" />
            </Array>
          </mxGeometry>
        </mxCell>
        <mxCell id="9-6c7BfhoWEWpENg01it-343" value="" style="edgeStyle=elbowEdgeStyle;elbow=vertical;rounded=0;fontColor=#000000;endArrow=none;endFill=0;strokeWidth=8;strokeColor=#23445D;entryX=0;entryY=0.5;entryDx=0;entryDy=0;" edge="1" parent="1">
          <mxGeometry width="100" height="100" relative="1" as="geometry">
            <mxPoint x="2250" y="350" as="sourcePoint" />
            <mxPoint x="2280" y="409.9999999999998" as="targetPoint" />
            <Array as="points">
              <mxPoint x="2260" y="410" />
            </Array>
          </mxGeometry>
        </mxCell>
        <mxCell id="9-6c7BfhoWEWpENg01it-344" value="" style="edgeStyle=elbowEdgeStyle;elbow=vertical;rounded=0;fontColor=#000000;endArrow=none;endFill=0;strokeWidth=8;strokeColor=#23445D;entryX=0;entryY=0.5;entryDx=0;entryDy=0;" edge="1" parent="1">
          <mxGeometry width="100" height="100" relative="1" as="geometry">
            <mxPoint x="2250" y="409.9999999999998" as="sourcePoint" />
            <mxPoint x="2280" y="499.9999999999998" as="targetPoint" />
            <Array as="points">
              <mxPoint x="2260" y="500" />
            </Array>
          </mxGeometry>
        </mxCell>
        <mxCell id="9-6c7BfhoWEWpENg01it-352" value="&lt;font style=&quot;font-size: 22px&quot;&gt;&lt;b&gt;Legenda&lt;/b&gt;&lt;/font&gt;" style="text;html=1;strokeColor=none;fillColor=none;align=center;verticalAlign=middle;whiteSpace=wrap;rounded=0;fontSize=12;" vertex="1" parent="1">
          <mxGeometry x="190" y="10" width="60" height="30" as="geometry" />
        </mxCell>
        <mxCell id="9-6c7BfhoWEWpENg01it-353" value="" style="group" vertex="1" connectable="0" parent="1">
          <mxGeometry x="170" y="50" width="110" height="170" as="geometry" />
        </mxCell>
        <mxCell id="9-6c7BfhoWEWpENg01it-354" value="Przedsiębiorstwo" style="whiteSpace=wrap;rounded=1;shadow=1;fillColor=#10739E;strokeColor=none;fontColor=#FFFFFF;fontStyle=1;fontSize=12;" vertex="1" parent="9-6c7BfhoWEWpENg01it-353">
          <mxGeometry width="110.00000000000001" height="30.909090909090907" as="geometry" />
        </mxCell>
        <mxCell id="9-6c7BfhoWEWpENg01it-355" value="Komórka" style="whiteSpace=wrap;rounded=1;shadow=1;fillColor=#12AAB5;strokeColor=none;fontColor=#FFFFFF;fontStyle=1;fontSize=12;" vertex="1" parent="9-6c7BfhoWEWpENg01it-353">
          <mxGeometry y="92.72727272727272" width="110.00000000000001" height="30.909090909090907" as="geometry" />
        </mxCell>
        <mxCell id="9-6c7BfhoWEWpENg01it-356" value="Stanowisko" style="whiteSpace=wrap;rounded=1;shadow=1;fillColor=#999999;strokeColor=none;fontColor=#FFFFFF;fontStyle=1;fontSize=12;" vertex="1" parent="9-6c7BfhoWEWpENg01it-353">
          <mxGeometry y="139.0909090909091" width="110.00000000000001" height="30.909090909090907" as="geometry" />
        </mxCell>
        <mxCell id="9-6c7BfhoWEWpENg01it-357" value="Wydział" style="whiteSpace=wrap;rounded=1;shadow=1;fillColor=#F2931E;strokeColor=none;fontColor=#FFFFFF;fontStyle=1;fontSize=12;" vertex="1" parent="9-6c7BfhoWEWpENg01it-353">
          <mxGeometry y="46.36363636363636" width="110.00000000000001" height="30.909090909090907" as="geometry" />
        </mxCell>
      </root>
    </mxGraphModel>
  </diagram>
</mxfile>
